<?xml version="1.0" encoding="UTF-8"?>
<!DOCTYPE svg PUBLIC "-//W3C//DTD SVG 1.1//EN" "http://www.w3.org/Graphics/SVG/1.1/DTD/svg11.dtd">
<svg xmlns="http://www.w3.org/2000/svg" version="1.1" width="100px" height="100px" style="shape-rendering:geometricPrecision; text-rendering:geometricPrecision; image-rendering:optimizeQuality; fill-rule:evenodd; clip-rule:evenodd" xmlns:xlink="http://www.w3.org/1999/xlink">
<g><path style="opacity:1" fill="#00ff98" d="M 47.5,0.5 C 77.864,2.86313 94.864,19.1965 98.5,49.5C 95.1946,78.8054 78.8613,95.1387 49.5,98.5C 20.1946,95.1946 3.86129,78.8613 0.5,49.5C 3.65571,21.0134 19.3224,4.68004 47.5,0.5 Z M 43.5,7.5 C 47.5,7.5 51.5,7.5 55.5,7.5C 55.5,19.5 55.5,31.5 55.5,43.5C 67.5,43.5 79.5,43.5 91.5,43.5C 91.5,47.5 91.5,51.5 91.5,55.5C 79.5,55.5 67.5,55.5 55.5,55.5C 55.5,67.5 55.5,79.5 55.5,91.5C 51.5,91.5 47.5,91.5 43.5,91.5C 43.5,79.5 43.5,67.5 43.5,55.5C 31.5,55.5 19.5,55.5 7.5,55.5C 7.5,51.5 7.5,47.5 7.5,43.5C 19.5,43.5 31.5,43.5 43.5,43.5C 43.5,31.5 43.5,19.5 43.5,7.5 Z"/></g>
</svg>
